<svg id="SvgjsSvg1333" width="550" height="550" xmlns="http://www.w3.org/2000/svg" version="1.1" xmlns:xlink="http://www.w3.org/1999/xlink" xmlns:svgjs="http://svgjs.com/svgjs"><defs id="SvgjsDefs1334"></defs><g id="SvgjsG1335"><svg xmlns="http://www.w3.org/2000/svg" enable-background="new 0 0 2000 2000" viewBox="0 0 2000 2000" width="550" height="550"><switch><g><path fill="#efe4e4" d="M1853.2,1060.7c0,32-1.8,63.5-5.2,94.6c-47,426.5-408.6,758.3-847.7,758.3
				c-273.1,0-516.2-128.4-672.3-328.1c-113.1-144.7-180.6-326.9-180.6-524.8c0-471.1,381.9-852.9,852.9-852.9
				C1471.3,207.8,1853.2,589.7,1853.2,1060.7z" class="colorEFE4E4 svgShape"></path><path fill="#363331" d="M1848,1155.3c-47,426.5-408.6,758.3-847.7,758.3c-273.1,0-516.2-128.4-672.3-328.1
						c83.3-178.6,167.5-337.5,214.5-355.9c124.8-49,375.2-84.7,375.2-84.7l337.8-25.5C1255.4,1119.5,1668,1097.1,1848,1155.3z" class="color363331 svgShape"></path><path fill="#ffbd9c" d="M1108.9,810.4l146.5,309c0,0-27.3,108-202.4,126.7c-98.6,10.6-128.8-62.3-128.8-62.3L856.7,1001
						L1108.9,810.4z" class="colorFFBD9C svgShape"></path><path fill="#f19567" d="M900.4,1117.8l23.9,66.1c0,0,45.4-0.4,54.6-15c17.6-27.9,47.2-193.3,47.2-193.3L900.4,1117.8z" class="colorF19567 svgShape"></path><path fill="#ffbd9c" d="M863.7,228c219.2,0,252.6,307.5,226.7,545.5c-15.6,142.8-66.8,281.7-143.6,360.7
						c-29.8,30.7-302.6,10.5-331-31.7C524.4,966.7,592.4,228,863.7,228z" class="colorFFBD9C svgShape"></path><path fill="#984630" d="M1090.4,773.5L1070.5,450c0,0-66.5-66.8-139.3-19.5c-43.5,28.2-60.1,72.6-119.4,94.9
						c-68,25.7-97.8-41.6-97.8-41.6s-30.1,83.4-116.5,68.4c-84.5-14.7-80.5-113-80.5-113s-91.6,5.3-99.1-64.1
						c-10.3-94,101.3-88.3,101.3-88.3s-53.3-119.7,34.6-161.7c86.1-41.2,219.2,28.1,219.2,28.1s-28.3-79,64.7-66.8
						c107.4,14.1,482.5,130.6,521.2,245c41.1,121.5-143.3,703.9-143.3,703.9L1090.4,773.5z" class="color984630 svgShape"></path><ellipse cx="1150.1" cy="715.9" fill="#ffbd9c" rx="179.6" ry="111.3" transform="rotate(-39.649 1150.154 715.856)" class="colorFFBD9C svgShape"></ellipse><path fill="#f19567" d="M1115.4,743.9c0.2-46.6,51.1-95.3,98.6-76.9c7.1,2.7,10.1-8.6,3.1-11.4
							c-54.7-21.2-113.3,34.6-113.5,88.2C1103.6,751.4,1115.3,751.4,1115.4,743.9L1115.4,743.9z" class="colorF19567 svgShape"></path><path fill="#f19567" d="M1114.9,746.7c15.1-23.7,43.7-36.6,71.4-31c7.4,1.5,10.6-9.8,3.1-11.4c-33.1-6.8-66.6,8-84.7,36.4
							C1100.7,747.1,1110.9,753.1,1114.9,746.7L1114.9,746.7z" class="colorF19567 svgShape"></path><path fill="#363331" d="M627.2 567c19.1-1.4 41.9-1.8 59.5 6.8 12.9 6.3 13.9 19.1 13.5 32.4-.5 16.1-2.6 32.2-5.7 48.1-5.8 29.9-15.4 59-26.5 87.3-5.9 15.2-12.3 30.2-18.9 45.2-3.1 7.1-6.3 14.3-9.5 21.4-2.3 5.1-5.6 10.7-5.7 16.4-.3 13.3 14.7 18.4 24.9 22.5 16.6 6.8 34 11.2 51.8 13.7 7.4 1 10.6-10.3 3.1-11.4-15.4-2.1-30.5-5.7-45.1-11.1-7-2.6-18.8-5-21.1-12.7-2.2-7.4 5.7-19.2 8.9-26.3 12.3-27.9 24.3-56.1 34-85 9.8-29.3 17.3-59.4 20.3-90.2 2.1-21.9 4.8-49-18.1-60.5-19.5-9.8-44.2-9.9-65.4-8.4C619.7 555.8 619.6 567.6 627.2 567L627.2 567zM816 589.7c19.2-18.5 52.3-13.3 76-8.6 27.9 5.6 54.2 16.4 78.1 31.6 6.4 4.1 12.3-6.1 5.9-10.2C948.4 585 917.4 573 884.9 568c-26-4-56.8-6.3-77.3 13.4C802.2 586.7 810.5 595 816 589.7L816 589.7zM824.1 681c11.6-17.7 34.4-24.9 54.6-19.6 21.7 5.7 37.6 23.2 47.5 42.6 3.5 6.7 13.6.8 10.2-5.9-12-23.4-32.9-44.5-59.8-49.1-24.2-4.2-49.1 5.6-62.6 26.2C809.7 681.4 819.9 687.3 824.1 681L824.1 681z" class="color363331 svgShape"></path><path fill="#363331" d="M623.8 644.4c9.8-11.7 27.7-20.2 41.5-10.3 10.5 7.6 18.8 19.3 24.8 30.6 3.6 6.7 13.7.7 10.2-5.9-7.7-14.4-19.6-31.2-34.8-38.2-17.2-7.9-38.6 2.1-49.9 15.6C610.6 641.9 618.9 650.2 623.8 644.4L623.8 644.4zM868.9 657.1c0 0-14 66.5 13.8 73.2 27.7 6.7 33-48.8 33-48.8l-21.4-17.6L868.9 657.1z" class="color363331 svgShape"></path><path fill="#363331" d="M647.8 623c0 0-9.3 64.5 14.7 70.5s24.2-42.5 24.2-42.5l-16.4-21.3L647.8 623zM721.5 951.7c33 8.3 79 5.5 101.7-23.5 4.6-5.9-3.7-14.3-8.3-8.3-20.1 25.7-60.9 27.8-90.2 20.4C717.3 938.5 714.2 949.8 721.5 951.7L721.5 951.7z" class="color363331 svgShape"></path><path fill="#ffede6" d="M861.2,1193.2c12,35.4,37,66.1,68.3,86.3c35.1,22.7,77.9,27.3,118.8,25.6c71-2.9,142-26.7,198.2-70.7
							c31.7-24.9,57.9-56.2,75.7-92.4c3.3-6.8-6.8-12.7-10.2-5.9c-30,60.9-83.8,106-146,131.6c-30.7,12.6-63.4,20.9-96.4,24.2
							c-38.6,3.9-81.3,3.6-117.2-13.1c-36.6-17.1-66.8-50.5-79.7-88.7C870.1,1183,858.7,1186,861.2,1193.2L861.2,1193.2z" class="colorFFEDE6 svgShape"></path><path fill="#bf6248" d="M1123.9,286.9c-52.3-35.4-108.5-68.2-171.2-80.5c-30.4-6-61.7-7.2-92.3-1.7
							c-24.6,4.4-54.5,12.9-68.3,35.7c-11.5,18.9-5.6,48.4,17.3,55.2c1-3.8,2.1-7.6,3.1-11.4c-33.9-7.8-69.1-7.7-102.8,0.8
							c-28.4,7.2-57.5,20.2-77.6,42.3c-17.6,19.4-26.6,45.8-16.7,71.1c8.9,22.6,30,39.9,55.2,35.2c7.4-1.4,4.3-12.8-3.1-11.4
							c-22.8,4.3-40.4-17.8-44-38.2c-4.2-24.5,12.3-46.9,30.7-61c42.8-32.5,104-39.3,155.1-27.5c7.4,1.7,10.4-9.2,3.1-11.4
							c-12.8-3.8-16.8-19.6-13.2-31.3c4.6-15.3,20.8-24.1,34.8-29.2c31-11.3,65.4-13,97.9-8.9c68.6,8.7,129.7,44.2,186,82.2
							C1124.2,301.4,1130.1,291.2,1123.9,286.9L1123.9,286.9z" class="colorBF6248 svgShape"></path></g></switch></svg></g></svg>